<?xml version="1.0" standalone="no"?>
<!DOCTYPE svg PUBLIC "-//W3C//DTD SVG 20010904//EN"
 "http://www.w3.org/TR/2001/REC-SVG-20010904/DTD/svg10.dtd">
<svg version="1.0" xmlns="http://www.w3.org/2000/svg"
 width="300.000000pt" height="300.000000pt" viewBox="0 0 300.000000 300.000000"
 preserveAspectRatio="xMidYMid meet">

<g transform="translate(0.000000,300.000000) scale(0.100000,-0.100000)"
fill="#000000" stroke="none">
<path d="M968 1802 l-28 -17 0 -160 0 -161 29 -17 c16 -9 32 -17 35 -17 3 0 6
88 6 195 0 107 -3 195 -7 194 -5 0 -20 -8 -35 -17z"/>
<path d="M1356 1774 c-9 -8 -16 -24 -16 -34 0 -21 36 -50 62 -50 9 0 24 -7 33
-16 30 -30 -25 -60 -65 -35 -20 13 -34 2 -19 -15 15 -19 93 -18 109 0 23 28 8
60 -40 83 -62 29 -63 59 -2 56 42 -2 56 9 26 21 -29 11 -72 6 -88 -10z"/>
<path d="M1583 1700 c-1 -69 2 -90 13 -90 9 0 14 19 16 68 l3 67 29 -43 c28
-41 31 -43 44 -25 7 10 22 29 32 43 l19 25 1 -67 c0 -54 3 -68 15 -68 12 0 15
17 15 90 0 79 -2 90 -18 90 -9 0 -28 -18 -42 -40 -14 -22 -28 -40 -32 -40 -4
0 -20 18 -34 40 -15 22 -34 40 -44 40 -14 0 -17 -12 -17 -90z"/>
<path d="M1920 1713 c-18 -43 -35 -84 -37 -90 -3 -7 2 -13 10 -13 8 0 17 9 20
20 4 17 14 20 55 20 42 0 52 -3 57 -20 3 -11 12 -20 20 -20 10 0 3 26 -23 90
-25 60 -42 90 -53 90 -11 0 -27 -26 -49 -77z m68 5 c13 -34 1 -53 -26 -43 -8
3 -18 5 -23 5 -5 0 -1 16 8 35 9 19 19 35 23 35 3 0 11 -14 18 -32z"/>
<path d="M2170 1700 c0 -49 4 -90 9 -90 6 0 11 15 13 33 5 48 39 49 68 3 12
-20 28 -36 37 -36 12 0 11 6 -6 33 -20 32 -20 33 -1 45 14 8 20 23 20 47 0 43
-20 55 -89 55 l-51 0 0 -90z m106 56 c30 -23 7 -50 -45 -54 -39 -3 -41 -2 -41
26 0 16 3 32 7 35 11 12 59 7 79 -7z"/>
<path d="M2410 1780 c0 -5 14 -10 30 -10 l30 0 0 -80 c0 -103 18 -105 22 -2 3
76 3 77 31 80 55 7 25 22 -43 22 -40 0 -70 -4 -70 -10z"/>
<path d="M1125 1638 c-3 -8 1 -28 10 -44 10 -19 15 -23 15 -11 0 9 5 17 11 17
6 0 9 10 7 22 -3 26 -35 37 -43 16z"/>
<path d="M600 1562 c-23 -18 -22 -18 165 -125 103 -59 193 -107 200 -107 7 0
22 8 34 18 21 17 18 19 -168 125 -104 59 -194 107 -199 107 -5 0 -20 -8 -32
-18z"/>
<path d="M1141 1544 c0 -11 3 -14 6 -6 3 7 2 16 -1 19 -3 4 -6 -2 -5 -13z"/>
<path d="M1131 1497 c-13 -21 -12 -21 5 -5 10 10 16 20 13 22 -3 3 -11 -5 -18
-17z"/>
<path d="M1064 1454 c-18 -14 -18 -15 4 -4 12 6 22 13 22 15 0 8 -5 6 -26 -11z"/>
</g>
</svg>
